<?xml version="1.0" encoding="UTF-8"?>
<!DOCTYPE svg PUBLIC "-//W3C//DTD SVG 1.1//EN" "http://www.w3.org/Graphics/SVG/1.1/DTD/svg11.dtd">
<svg xmlns="http://www.w3.org/2000/svg" version="1.1" width="100px" height="100px" style="shape-rendering:geometricPrecision; text-rendering:geometricPrecision; image-rendering:optimizeQuality; fill-rule:evenodd; clip-rule:evenodd" xmlns:xlink="http://www.w3.org/1999/xlink">
<g><path style="opacity:1" fill="#ff6601" d="M -0.5,-0.5 C 32.8333,-0.5 66.1667,-0.5 99.5,-0.5C 99.5,32.8333 99.5,66.1667 99.5,99.5C 66.1667,99.5 32.8333,99.5 -0.5,99.5C -0.5,66.1667 -0.5,32.8333 -0.5,-0.5 Z"/></g>
<g><path style="opacity:1" fill="#fffbf9" d="M 27.5,23.5 C 30.8499,23.335 34.1832,23.5017 37.5,24C 41.3897,29.6265 45.3897,35.1265 49.5,40.5C 53.6103,35.1265 57.6103,29.6265 61.5,24C 64.8823,23.1764 68.2156,23.343 71.5,24.5C 65.8625,33.3031 60.0292,41.9698 54,50.5C 53.5002,59.1603 53.3336,67.8269 53.5,76.5C 50.8333,76.5 48.1667,76.5 45.5,76.5C 45.6664,67.8269 45.4998,59.1603 45,50.5C 38.6475,41.784 32.8141,32.784 27.5,23.5 Z"/></g>
</svg>
